<svg width="124" height="30" viewBox="0 0 124 30" fill="none" xmlns="http://www.w3.org/2000/svg">
<path d="M50.656 15L47.776 10.95C47.452 10.986 47.116 11.004 46.768 11.004H43.384V15H42.052V2.4H46.768C48.376 2.4 49.636 2.784 50.548 3.552C51.46 4.32 51.916 5.376 51.916 6.72C51.916 7.704 51.664 8.538 51.16 9.222C50.668 9.894 49.96 10.38 49.036 10.68L52.114 15H50.656ZM46.732 9.87C47.98 9.87 48.934 9.594 49.594 9.042C50.254 8.49 50.584 7.716 50.584 6.72C50.584 5.7 50.254 4.92 49.594 4.38C48.934 3.828 47.98 3.552 46.732 3.552H43.384V9.87H46.732ZM55.0598 2.4H56.3918V15H55.0598V2.4ZM65.9635 15.108C64.7155 15.108 63.5875 14.832 62.5795 14.28C61.5835 13.728 60.7975 12.966 60.2215 11.994C59.6575 11.01 59.3755 9.912 59.3755 8.7C59.3755 7.488 59.6575 6.396 60.2215 5.424C60.7975 4.44 61.5895 3.672 62.5975 3.12C63.6055 2.568 64.7335 2.292 65.9815 2.292C66.9175 2.292 67.7815 2.448 68.5735 2.76C69.3655 3.072 70.0375 3.528 70.5895 4.128L69.7435 4.974C68.7595 3.978 67.5175 3.48 66.0175 3.48C65.0215 3.48 64.1155 3.708 63.2995 4.164C62.4835 4.62 61.8415 5.244 61.3735 6.036C60.9175 6.828 60.6895 7.716 60.6895 8.7C60.6895 9.684 60.9175 10.572 61.3735 11.364C61.8415 12.156 62.4835 12.78 63.2995 13.236C64.1155 13.692 65.0215 13.92 66.0175 13.92C67.5295 13.92 68.7715 13.416 69.7435 12.408L70.5895 13.254C70.0375 13.854 69.3595 14.316 68.5555 14.64C67.7635 14.952 66.8995 15.108 65.9635 15.108ZM83.959 2.4V15H82.645V9.186H74.761V15H73.429V2.4H74.761V8.016H82.645V2.4H83.959ZM96.0095 8.502C96.8375 8.682 97.4735 9.042 97.9175 9.582C98.3735 10.11 98.6015 10.794 98.6015 11.634C98.6015 12.714 98.1995 13.548 97.3955 14.136C96.6035 14.712 95.4275 15 93.8675 15H88.0715V2.4H93.5075C94.9115 2.4 95.9975 2.682 96.7655 3.246C97.5455 3.81 97.9355 4.608 97.9355 5.64C97.9355 6.336 97.7615 6.93 97.4135 7.422C97.0775 7.902 96.6095 8.262 96.0095 8.502ZM89.4035 3.498V8.07H93.4175C94.4375 8.07 95.2235 7.878 95.7755 7.494C96.3275 7.098 96.6035 6.528 96.6035 5.784C96.6035 5.04 96.3275 4.476 95.7755 4.092C95.2235 3.696 94.4375 3.498 93.4175 3.498H89.4035ZM93.8495 13.902C94.9775 13.902 95.8295 13.71 96.4055 13.326C96.9815 12.942 97.2695 12.342 97.2695 11.526C97.2695 9.954 96.1295 9.168 93.8495 9.168H89.4035V13.902H93.8495ZM110.552 13.848V15H101.642V2.4H110.282V3.552H102.974V8.034H109.49V9.168H102.974V13.848H110.552ZM122.593 13.848V15H113.683V2.4H122.323V3.552H115.015V8.034H121.531V9.168H115.015V13.848H122.593Z" fill="#F4F7FB"/>
<path d="M45.06 20.086C45.654 20.086 46.131 20.293 46.491 20.707C46.857 21.121 47.04 21.745 47.04 22.579C47.04 23.401 46.857 24.025 46.491 24.451C46.131 24.877 45.651 25.09 45.051 25.09C44.679 25.09 44.37 25.021 44.124 24.883C43.884 24.739 43.695 24.574 43.557 24.388H43.503C43.515 24.49 43.527 24.619 43.539 24.775C43.551 24.931 43.557 25.066 43.557 25.18V27.16H42.765V20.176H43.413L43.521 20.833H43.557C43.701 20.623 43.89 20.446 44.124 20.302C44.358 20.158 44.67 20.086 45.06 20.086ZM44.916 20.752C44.424 20.752 44.076 20.89 43.872 21.166C43.674 21.442 43.569 21.862 43.557 22.426V22.579C43.557 23.173 43.653 23.632 43.845 23.956C44.043 24.274 44.406 24.433 44.934 24.433C45.228 24.433 45.468 24.352 45.654 24.19C45.846 24.028 45.987 23.809 46.077 23.533C46.173 23.251 46.221 22.93 46.221 22.57C46.221 22.018 46.113 21.577 45.897 21.247C45.687 20.917 45.36 20.752 44.916 20.752ZM50.1291 20.095C50.7171 20.095 51.1521 20.224 51.4341 20.482C51.7161 20.74 51.8571 21.151 51.8571 21.715V25H51.2811L51.1281 24.316H51.0921C50.8821 24.58 50.6601 24.775 50.4261 24.901C50.1981 25.027 49.8801 25.09 49.4721 25.09C49.0341 25.09 48.6711 24.976 48.3831 24.748C48.0951 24.514 47.9511 24.151 47.9511 23.659C47.9511 23.179 48.1401 22.81 48.5181 22.552C48.8961 22.288 49.4781 22.144 50.2641 22.12L51.0831 22.093V21.805C51.0831 21.403 50.9961 21.124 50.8221 20.968C50.6481 20.812 50.4021 20.734 50.0841 20.734C49.8321 20.734 49.5921 20.773 49.3641 20.851C49.1361 20.923 48.9231 21.007 48.7251 21.103L48.4821 20.509C48.6921 20.395 48.9411 20.299 49.2291 20.221C49.5171 20.137 49.8171 20.095 50.1291 20.095ZM51.0741 22.642L50.3631 22.669C49.7631 22.693 49.3461 22.789 49.1121 22.957C48.8841 23.125 48.7701 23.362 48.7701 23.668C48.7701 23.938 48.8511 24.136 49.0131 24.262C49.1811 24.388 49.3941 24.451 49.6521 24.451C50.0601 24.451 50.3991 24.34 50.6691 24.118C50.9391 23.89 51.0741 23.542 51.0741 23.074V22.642ZM54.616 20.086C55.168 20.086 55.606 20.197 55.93 20.419C56.26 20.635 56.425 20.947 56.425 21.355C56.425 21.649 56.344 21.883 56.182 22.057C56.02 22.225 55.798 22.348 55.516 22.426V22.462C55.708 22.516 55.885 22.591 56.047 22.687C56.209 22.783 56.338 22.909 56.434 23.065C56.536 23.221 56.587 23.422 56.587 23.668C56.587 24.07 56.419 24.409 56.083 24.685C55.753 24.955 55.234 25.09 54.526 25.09C54.178 25.09 53.863 25.06 53.581 25C53.299 24.946 53.065 24.871 52.879 24.775V24.064C53.083 24.16 53.323 24.247 53.599 24.325C53.881 24.403 54.187 24.442 54.517 24.442C54.877 24.442 55.18 24.382 55.426 24.262C55.678 24.136 55.804 23.923 55.804 23.623C55.804 23.083 55.345 22.813 54.427 22.813H53.779V22.165H54.301C54.715 22.165 55.045 22.111 55.291 22.003C55.543 21.889 55.669 21.697 55.669 21.427C55.669 21.199 55.573 21.028 55.381 20.914C55.195 20.8 54.925 20.743 54.571 20.743C54.307 20.743 54.073 20.77 53.869 20.824C53.671 20.872 53.452 20.947 53.212 21.049L52.933 20.419C53.437 20.197 53.998 20.086 54.616 20.086ZM60.0541 20.086C60.6481 20.086 61.1251 20.293 61.4851 20.707C61.8511 21.121 62.0341 21.745 62.0341 22.579C62.0341 23.401 61.8511 24.025 61.4851 24.451C61.1251 24.877 60.6451 25.09 60.0451 25.09C59.6731 25.09 59.3641 25.021 59.1181 24.883C58.8781 24.739 58.6891 24.574 58.5511 24.388H58.4971C58.5091 24.49 58.5211 24.619 58.5331 24.775C58.5451 24.931 58.5511 25.066 58.5511 25.18V27.16H57.7591V20.176H58.4071L58.5151 20.833H58.5511C58.6951 20.623 58.8841 20.446 59.1181 20.302C59.3521 20.158 59.6641 20.086 60.0541 20.086ZM59.9101 20.752C59.4181 20.752 59.0701 20.89 58.8661 21.166C58.6681 21.442 58.5631 21.862 58.5511 22.426V22.579C58.5511 23.173 58.6471 23.632 58.8391 23.956C59.0371 24.274 59.4001 24.433 59.9281 24.433C60.2221 24.433 60.4621 24.352 60.6481 24.19C60.8401 24.028 60.9811 23.809 61.0711 23.533C61.1671 23.251 61.2151 22.93 61.2151 22.57C61.2151 22.018 61.1071 21.577 60.8911 21.247C60.6811 20.917 60.3541 20.752 59.9101 20.752ZM65.1233 20.095C65.7113 20.095 66.1463 20.224 66.4283 20.482C66.7103 20.74 66.8513 21.151 66.8513 21.715V25H66.2753L66.1223 24.316H66.0863C65.8763 24.58 65.6543 24.775 65.4203 24.901C65.1923 25.027 64.8743 25.09 64.4663 25.09C64.0283 25.09 63.6653 24.976 63.3773 24.748C63.0893 24.514 62.9453 24.151 62.9453 23.659C62.9453 23.179 63.1343 22.81 63.5123 22.552C63.8903 22.288 64.4723 22.144 65.2583 22.12L66.0773 22.093V21.805C66.0773 21.403 65.9903 21.124 65.8163 20.968C65.6423 20.812 65.3963 20.734 65.0783 20.734C64.8263 20.734 64.5863 20.773 64.3583 20.851C64.1303 20.923 63.9173 21.007 63.7192 21.103L63.4763 20.509C63.6863 20.395 63.9353 20.299 64.2233 20.221C64.5113 20.137 64.8113 20.095 65.1233 20.095ZM66.0683 22.642L65.3573 22.669C64.7573 22.693 64.3403 22.789 64.1063 22.957C63.8783 23.125 63.7643 23.362 63.7643 23.668C63.7643 23.938 63.8453 24.136 64.0073 24.262C64.1753 24.388 64.3883 24.451 64.6463 24.451C65.0543 24.451 65.3933 24.34 65.6633 24.118C65.9333 23.89 66.0683 23.542 66.0683 23.074V22.642ZM68.0892 22.102C68.0892 21.046 68.2482 20.224 68.5662 19.636C68.8842 19.042 69.3972 18.67 70.1052 18.52C70.4952 18.436 70.8762 18.361 71.2482 18.295C71.6202 18.229 71.9682 18.169 72.2922 18.115L72.4272 18.808C72.2172 18.838 71.9802 18.877 71.7162 18.925C71.4522 18.967 71.1912 19.012 70.9332 19.06C70.6752 19.102 70.4532 19.144 70.2672 19.186C69.8772 19.27 69.5682 19.474 69.3402 19.798C69.1122 20.116 68.9832 20.614 68.9532 21.292H69.0072C69.0912 21.178 69.2052 21.061 69.3492 20.941C69.4992 20.821 69.6762 20.719 69.8802 20.635C70.0902 20.551 70.3272 20.509 70.5912 20.509C71.2152 20.509 71.6862 20.71 72.0042 21.112C72.3222 21.514 72.4812 22.036 72.4812 22.678C72.4812 23.212 72.3882 23.659 72.2022 24.019C72.0162 24.379 71.7582 24.649 71.4282 24.829C71.0982 25.003 70.7142 25.09 70.2762 25.09C69.6102 25.09 69.0792 24.835 68.6832 24.325C68.2872 23.815 68.0892 23.074 68.0892 22.102ZM70.3392 24.433C70.7292 24.433 71.0442 24.307 71.2842 24.055C71.5242 23.803 71.6442 23.371 71.6442 22.759C71.6442 22.267 71.5512 21.88 71.3652 21.598C71.1852 21.31 70.8852 21.166 70.4652 21.166C70.2012 21.166 69.9612 21.226 69.7452 21.346C69.5292 21.46 69.3492 21.592 69.2052 21.742C69.0612 21.892 68.9592 22.018 68.8992 22.12C68.8992 22.414 68.9202 22.699 68.9622 22.975C69.0042 23.251 69.0762 23.5 69.1782 23.722C69.2862 23.938 69.4332 24.112 69.6192 24.244C69.8112 24.37 70.0512 24.433 70.3392 24.433ZM77.9229 22.579C77.9229 23.377 77.7189 23.995 77.3109 24.433C76.9089 24.871 76.3629 25.09 75.6729 25.09C75.2469 25.09 74.8659 24.994 74.5299 24.802C74.1999 24.604 73.9389 24.319 73.7469 23.947C73.5549 23.569 73.4589 23.113 73.4589 22.579C73.4589 21.781 73.6599 21.166 74.0619 20.734C74.4639 20.302 75.0099 20.086 75.6999 20.086C76.1379 20.086 76.5219 20.185 76.8519 20.383C77.1879 20.575 77.4489 20.857 77.6349 21.229C77.8269 21.595 77.9229 22.045 77.9229 22.579ZM74.2779 22.579C74.2779 23.149 74.3889 23.602 74.6109 23.938C74.8389 24.268 75.1989 24.433 75.6909 24.433C76.1769 24.433 76.5339 24.268 76.7619 23.938C76.9899 23.602 77.1039 23.149 77.1039 22.579C77.1039 22.009 76.9899 21.562 76.7619 21.238C76.5339 20.914 76.1739 20.752 75.6819 20.752C75.1899 20.752 74.8329 20.914 74.6109 21.238C74.3889 21.562 74.2779 22.009 74.2779 22.579ZM82.4202 20.842H80.8452V25H80.0622V20.842H78.5052V20.176H82.4202V20.842ZM86.2235 20.176H87.0875L85.0265 22.498L87.2585 25H86.3405L84.1625 22.552V25H83.3705V20.176H84.1625V22.516L86.2235 20.176ZM89.9611 20.095C90.5491 20.095 90.9841 20.224 91.2661 20.482C91.5481 20.74 91.6891 21.151 91.6891 21.715V25H91.1131L90.9601 24.316H90.9241C90.7141 24.58 90.4921 24.775 90.2581 24.901C90.0301 25.027 89.7121 25.09 89.3041 25.09C88.8661 25.09 88.5031 24.976 88.2151 24.748C87.9271 24.514 87.7831 24.151 87.7831 23.659C87.7831 23.179 87.9721 22.81 88.3501 22.552C88.7281 22.288 89.3101 22.144 90.0961 22.12L90.9151 22.093V21.805C90.9151 21.403 90.8281 21.124 90.6541 20.968C90.4801 20.812 90.2341 20.734 89.9161 20.734C89.6641 20.734 89.4241 20.773 89.1961 20.851C88.9681 20.923 88.7551 21.007 88.5571 21.103L88.3141 20.509C88.5241 20.395 88.7731 20.299 89.0611 20.221C89.3491 20.137 89.6491 20.095 89.9611 20.095ZM90.9061 22.642L90.1951 22.669C89.5951 22.693 89.1781 22.789 88.9441 22.957C88.7161 23.125 88.6021 23.362 88.6021 23.668C88.6021 23.938 88.6831 24.136 88.8451 24.262C89.0131 24.388 89.2261 24.451 89.4841 24.451C89.8921 24.451 90.2311 24.34 90.5011 24.118C90.7711 23.89 90.9061 23.542 90.9061 23.074V22.642ZM97.8123 25.09C97.3863 25.09 97.0053 25.003 96.6693 24.829C96.3393 24.655 96.0783 24.385 95.8863 24.019C95.7003 23.653 95.6073 23.185 95.6073 22.615C95.6073 22.021 95.7063 21.538 95.9043 21.166C96.1023 20.794 96.3693 20.521 96.7053 20.347C97.0473 20.173 97.4343 20.086 97.8663 20.086C98.1123 20.086 98.3493 20.113 98.5773 20.167C98.8053 20.215 98.9913 20.275 99.1353 20.347L98.8923 21.004C98.7483 20.95 98.5803 20.899 98.3883 20.851C98.1963 20.803 98.0163 20.779 97.8483 20.779C96.9003 20.779 96.4263 21.388 96.4263 22.606C96.4263 23.188 96.5403 23.635 96.7683 23.947C97.0023 24.253 97.3473 24.406 97.8033 24.406C98.0673 24.406 98.2983 24.379 98.4963 24.325C98.7003 24.271 98.8863 24.205 99.0543 24.127V24.829C98.8923 24.913 98.7123 24.976 98.5143 25.018C98.3223 25.066 98.0883 25.09 97.8123 25.09ZM102.029 20.095C102.617 20.095 103.052 20.224 103.334 20.482C103.616 20.74 103.757 21.151 103.757 21.715V25H103.181L103.028 24.316H102.992C102.782 24.58 102.56 24.775 102.326 24.901C102.098 25.027 101.78 25.09 101.372 25.09C100.934 25.09 100.571 24.976 100.283 24.748C99.9945 24.514 99.8505 24.151 99.8505 23.659C99.8505 23.179 100.04 22.81 100.418 22.552C100.796 22.288 101.378 22.144 102.164 22.12L102.983 22.093V21.805C102.983 21.403 102.896 21.124 102.722 20.968C102.548 20.812 102.302 20.734 101.984 20.734C101.732 20.734 101.492 20.773 101.264 20.851C101.036 20.923 100.823 21.007 100.625 21.103L100.382 20.509C100.592 20.395 100.841 20.299 101.129 20.221C101.417 20.137 101.717 20.095 102.029 20.095ZM102.974 22.642L102.263 22.669C101.663 22.693 101.246 22.789 101.012 22.957C100.784 23.125 100.67 23.362 100.67 23.668C100.67 23.938 100.751 24.136 100.913 24.262C101.081 24.388 101.294 24.451 101.552 24.451C101.96 24.451 102.299 24.34 102.569 24.118C102.839 23.89 102.974 23.542 102.974 23.074V22.642ZM105.993 20.176V23.119C105.993 23.191 105.99 23.299 105.984 23.443C105.978 23.587 105.969 23.731 105.957 23.875C105.951 24.019 105.945 24.133 105.939 24.217L108.522 20.176H109.494V25H108.756V22.156C108.756 22.06 108.756 21.934 108.756 21.778C108.762 21.622 108.768 21.469 108.774 21.319C108.78 21.163 108.786 21.046 108.792 20.968L106.227 25H105.246V20.176H105.993ZM109.152 18.178C109.11 18.628 108.957 18.97 108.693 19.204C108.435 19.432 108.021 19.546 107.451 19.546C106.863 19.546 106.446 19.432 106.2 19.204C105.96 18.976 105.825 18.634 105.795 18.178H106.533C106.563 18.502 106.647 18.721 106.785 18.835C106.929 18.943 107.157 18.997 107.469 18.997C107.745 18.997 107.961 18.94 108.117 18.826C108.279 18.706 108.375 18.49 108.405 18.178H109.152ZM114.36 20.842H112.785V25H112.002V20.842H110.445V20.176H114.36V20.842ZM117.137 20.095C117.725 20.095 118.16 20.224 118.442 20.482C118.724 20.74 118.865 21.151 118.865 21.715V25H118.289L118.136 24.316H118.1C117.89 24.58 117.668 24.775 117.434 24.901C117.206 25.027 116.888 25.09 116.48 25.09C116.042 25.09 115.679 24.976 115.391 24.748C115.103 24.514 114.959 24.151 114.959 23.659C114.959 23.179 115.148 22.81 115.526 22.552C115.904 22.288 116.486 22.144 117.272 22.12L118.091 22.093V21.805C118.091 21.403 118.004 21.124 117.83 20.968C117.656 20.812 117.41 20.734 117.092 20.734C116.84 20.734 116.6 20.773 116.372 20.851C116.144 20.923 115.931 21.007 115.733 21.103L115.49 20.509C115.7 20.395 115.949 20.299 116.237 20.221C116.525 20.137 116.825 20.095 117.137 20.095ZM118.082 22.642L117.371 22.669C116.771 22.693 116.354 22.789 116.12 22.957C115.892 23.125 115.778 23.362 115.778 23.668C115.778 23.938 115.859 24.136 116.021 24.262C116.189 24.388 116.402 24.451 116.66 24.451C117.068 24.451 117.407 24.34 117.677 24.118C117.947 23.89 118.082 23.542 118.082 23.074V22.642Z" fill="#F4F7FB"/>
<path d="M25 0H5C3.67392 0 2.40215 0.526784 1.46447 1.46447C0.526784 2.40215 0 3.67392 0 5L0 25C0 26.3261 0.526784 27.5979 1.46447 28.5355C2.40215 29.4732 3.67392 30 5 30H25C26.3261 30 27.5979 29.4732 28.5355 28.5355C29.4732 27.5979 30 26.3261 30 25V5C30 3.67392 29.4732 2.40215 28.5355 1.46447C27.5979 0.526784 26.3261 0 25 0V0ZM12.32 20.05L8.32 13.05H12.82L16.82 20.05H12.32ZM22 25L15 13H19.5C20.1885 13.0147 20.8652 12.8194 21.44 12.44C21.8186 12.0564 22.0309 11.539 22.0309 11C22.0309 10.461 21.8186 9.94365 21.44 9.56C21.2491 9.37583 21.0235 9.23147 20.7763 9.13533C20.529 9.03919 20.2652 8.99319 20 9H6L3.5 5H20C21.1859 5.00104 22.3449 5.3535 23.3307 6.01286C24.3164 6.67222 25.0846 7.60891 25.5383 8.70461C25.992 9.80032 26.1108 11.0059 25.8797 12.1691C25.6486 13.3323 25.0781 14.4009 24.24 15.24C23.5329 15.9528 22.655 16.4726 21.69 16.75L26.5 25H22Z" fill="white"/>
</svg>
