<svg width="24" height="24" viewBox="0 0 24 24" fill="none" xmlns="http://www.w3.org/2000/svg">
<path d="M23.1093 12C23.1117 10.3641 22.7517 8.74802 22.0552 7.26782C21.3587 5.78762 20.343 4.48007 19.081 3.43911C17.089 1.79195 14.585 0.890808 12.0001 0.890808C9.41524 0.890808 6.91124 1.79195 4.91916 3.43911C3.13596 4.91347 1.85785 6.90803 1.26338 9.14413C0.668918 11.3802 0.787798 13.7462 1.60341 15.9114C1.24056 16.3029 1.00365 16.7943 0.923415 17.322C0.843178 17.8497 0.923306 18.3893 1.15341 18.8709L2.46179 21.5985C2.61252 21.9139 2.82402 22.1965 3.08417 22.4301C3.34432 22.6637 3.64801 22.8436 3.97782 22.9596C4.30763 23.0756 4.65709 23.1253 5.00618 23.106C5.35526 23.0867 5.69709 22.9987 6.0121 22.847L6.28885 22.7143C6.31254 22.7026 6.3347 22.6881 6.35485 22.671C6.59688 22.7505 6.85697 22.7571 7.10272 22.69C7.34847 22.6228 7.56903 22.4848 7.73693 22.2932C7.90483 22.1015 8.01264 21.8648 8.04695 21.6123C8.08125 21.3599 8.04053 21.1029 7.92985 20.8734L4.93529 14.6368C4.85019 14.4583 4.72541 14.3016 4.57048 14.1787C4.41555 14.0558 4.23457 13.97 4.04138 13.9278C3.84819 13.8855 3.6479 13.888 3.45583 13.9351C3.26375 13.9821 3.08497 14.0724 2.93316 14.1992C2.52849 12.5266 2.59476 10.7747 3.12464 9.13752C3.65451 7.50034 4.62731 6.04181 5.93523 4.92355C6.06922 4.99404 6.21808 5.03157 6.36948 5.03305C6.57232 5.03264 6.76997 4.96886 6.93479 4.85061C8.41454 3.79923 10.1848 3.23437 12 3.23437C13.8152 3.23437 15.5855 3.79923 17.0652 4.85061C17.209 4.95421 17.3786 5.01605 17.5553 5.02928C17.732 5.04252 17.9089 5.00664 18.0665 4.92561C19.3738 6.04395 20.346 7.50229 20.8755 9.13914C21.405 10.776 21.4711 12.5274 21.0665 14.1996C20.9147 14.0728 20.7359 13.9825 20.5438 13.9354C20.3517 13.8884 20.1514 13.8859 19.9583 13.9281C19.7651 13.9704 19.5841 14.0562 19.4292 14.1791C19.2742 14.302 19.1494 14.4587 19.0644 14.6372L16.0705 20.8734C15.9586 21.1029 15.9169 21.3603 15.9506 21.6133C15.9844 21.8664 16.0922 22.1038 16.2604 22.2959C16.4287 22.4879 16.6499 22.626 16.8963 22.6927C17.1427 22.7595 17.4034 22.752 17.6455 22.6712C17.6657 22.6881 17.6879 22.7026 17.7115 22.7143L17.9883 22.8472C18.6247 23.1524 19.3562 23.1923 20.022 22.9581C20.6878 22.7239 21.2334 22.2349 21.5386 21.5985L22.847 18.8709C23.0771 18.3893 23.1572 17.8497 23.077 17.322C22.9967 16.7943 22.7598 16.3029 22.397 15.9114C22.8699 14.6617 23.1113 13.3362 23.1093 12ZM4.19523 22.3391C3.94654 22.2524 3.71753 22.1172 3.52143 21.9414C3.32534 21.7655 3.16605 21.5526 3.05279 21.3148L1.7446 18.587C1.51665 18.1109 1.48556 17.5641 1.65807 17.0652C1.83058 16.5662 2.19279 16.1554 2.66616 15.9217L5.70835 22.2645C5.2335 22.4877 4.68974 22.5145 4.19523 22.3391ZM3.48273 14.6188C3.56938 14.577 3.66437 14.5552 3.7606 14.5552C3.88222 14.5552 4.00138 14.5895 4.10438 14.6542C4.20737 14.7188 4.29001 14.8113 4.34279 14.9209L7.33773 21.1575C7.37435 21.2338 7.39559 21.3166 7.40021 21.4012C7.40484 21.4857 7.39277 21.5703 7.3647 21.6502C7.33662 21.7301 7.29309 21.8036 7.23659 21.8667C7.18008 21.9297 7.11171 21.981 7.03538 22.0176C6.95905 22.0543 6.87625 22.0755 6.79172 22.0801C6.70718 22.0848 6.62256 22.0727 6.54269 22.0446C6.46281 22.0165 6.38925 21.973 6.3262 21.9165C6.26315 21.86 6.21185 21.7916 6.17523 21.7153L3.18741 15.4903L3.18198 15.4787C3.1453 15.4024 3.12402 15.3196 3.11935 15.2351C3.11468 15.1506 3.12672 15.066 3.15477 14.9861C3.18282 14.9063 3.22634 14.8327 3.28284 14.7697C3.33934 14.7067 3.40771 14.6554 3.48404 14.6188H3.48273ZM2.01554 12C2.01507 13.0188 2.17069 14.0317 2.47698 15.0034C2.46232 15.0982 2.45829 15.1945 2.46498 15.2902L2.40141 15.3206C2.31085 15.3645 2.22284 15.4134 2.13779 15.4672C1.44614 13.4991 1.35944 11.3689 1.88885 9.35106C2.41826 7.33319 3.53955 5.51998 5.10835 4.14486L5.43741 4.48686C4.36223 5.42104 3.50029 6.57531 2.90992 7.87152C2.31955 9.16774 2.01455 10.5757 2.01554 12ZM17.4457 4.31605C15.8548 3.18553 13.9516 2.57813 11.9999 2.57813C10.0483 2.57813 8.14501 3.18553 6.55416 4.31605C6.49406 4.36006 6.42007 4.38085 6.34584 4.37458C6.27161 4.36831 6.20215 4.3354 6.15029 4.28193L5.61366 3.72355C7.44343 2.31228 9.68913 1.54685 11.9999 1.54685C14.3107 1.54685 16.5564 2.31228 18.3862 3.72355L17.8499 4.28174C17.798 4.33534 17.7285 4.36834 17.6542 4.37465C17.5799 4.38096 17.5058 4.36014 17.4457 4.31605ZM18.5624 4.48686L18.8911 4.14486C20.46 5.51989 21.5815 7.33306 22.111 9.35093C22.6406 11.3688 22.554 13.499 21.8624 15.4672C21.7774 15.4134 21.6894 15.3645 21.5988 15.3206L21.5352 15.29C21.5419 15.1943 21.5379 15.0982 21.5232 15.0034C22.1067 13.1525 22.1373 11.1716 21.6114 9.30351C21.0854 7.43546 20.0258 5.76149 18.5624 4.48686ZM16.9638 22.0181C16.8098 21.944 16.6916 21.8118 16.635 21.6506C16.5783 21.4894 16.588 21.3124 16.6617 21.1582L19.6557 14.9216C19.7085 14.812 19.7911 14.7196 19.8941 14.6549C19.9971 14.5902 20.1163 14.5559 20.2379 14.556C20.3468 14.5562 20.4539 14.5839 20.5492 14.6367C20.6444 14.6894 20.7248 14.7655 20.7827 14.8577C20.8406 14.9499 20.8742 15.0553 20.8803 15.164C20.8865 15.2728 20.865 15.3813 20.8179 15.4794L20.8124 15.4911L17.8238 21.716C17.7872 21.7924 17.736 21.8608 17.6729 21.9173C17.6099 21.9738 17.5363 22.0173 17.4564 22.0453C17.3765 22.0734 17.2919 22.0854 17.2074 22.0807C17.1229 22.0761 17.0401 22.0548 16.9638 22.0181ZM22.2549 18.5869L20.9467 21.3146C20.7184 21.7908 20.3114 22.1576 19.8141 22.3354C19.3169 22.5133 18.7696 22.4877 18.2911 22.2643L21.3337 15.9217C21.8072 16.1552 22.1696 16.566 22.3423 17.0649C22.515 17.5639 22.484 18.1108 22.2562 18.587L22.2549 18.5869Z" fill="black"/>
</svg>
