<svg width="48" height="48" viewBox="0 0 48 48" fill="none" xmlns="http://www.w3.org/2000/svg">
<path d="M41.6001 0H9.6001C7.3921 0.0026 5.6027 1.792 5.6001 4V44C5.6027 46.208 7.3921 47.9974 9.6001 48H41.6001C42.0419 48 42.4001 47.6418 42.4001 47.2V0.8C42.4001 0.3582 42.0419 0 41.6001 0ZM32.0001 1.6H36.8001V9.1056L34.7577 8.084C34.5326 7.9715 34.2676 7.9715 34.0425 8.084L32.0001 9.1056V1.6ZM7.2001 4C7.2001 2.6745 8.2746 1.6 9.6001 1.6H10.4001V38.4H9.6001C8.7317 38.4029 7.8884 38.6914 7.2001 39.2208V4ZM40.8001 42.4H10.4001V44H40.8001V46.4H9.6001C8.2746 46.4 7.2001 45.3255 7.2001 44V42.4C7.2001 41.0745 8.2746 40 9.6001 40H40.8001V42.4ZM40.8001 38.4H12.0001V1.6H30.4001V10.4C30.3999 10.8418 30.7579 11.2002 31.1997 11.2004C31.324 11.2005 31.4465 11.1716 31.5577 11.116L34.4001 9.6944L37.2425 11.12C37.6377 11.3175 38.1182 11.1572 38.3157 10.762C38.3719 10.6496 38.4008 10.5256 38.4001 10.4V1.6H40.8001V38.4Z" fill="#626262"/>
</svg>
