<svg width="60" height="60" viewBox="0 0 60 60" fill="none" xmlns="http://www.w3.org/2000/svg">
<g filter="url(#filter0_d)">
<circle r="15" transform="matrix(-1 0 0 1 30 26)" fill="white"/>
</g>
<g clip-path="url(#clip0)">
<path d="M27.5577 25.8559L32.1411 21.0642C32.2208 20.9816 32.3527 20.9779 32.4357 21.0577C32.5187 21.1372 32.5215 21.2691 32.4422 21.3523L27.9968 25.9999L32.4422 30.6476C32.5215 30.7308 32.5187 30.8627 32.4357 30.9422C32.3954 30.9809 32.3433 31 32.2916 31C32.2367 31 32.1822 30.9784 32.1411 30.9357L27.5577 26.144C27.4808 26.0634 27.4808 25.9365 27.5577 25.8559Z" fill="#40866E"/>
</g>
<defs>
<filter id="filter0_d" x="0" y="0" width="60" height="60" filterUnits="userSpaceOnUse" color-interpolation-filters="sRGB">
<feFlood flood-opacity="0" result="BackgroundImageFix"/>
<feColorMatrix in="SourceAlpha" type="matrix" values="0 0 0 0 0 0 0 0 0 0 0 0 0 0 0 0 0 0 127 0"/>
<feOffset dy="4"/>
<feGaussianBlur stdDeviation="7.5"/>
<feColorMatrix type="matrix" values="0 0 0 0 0 0 0 0 0 0 0 0 0 0 0 0 0 0 0.05 0"/>
<feBlend mode="normal" in2="BackgroundImageFix" result="effect1_dropShadow"/>
<feBlend mode="normal" in="SourceGraphic" in2="effect1_dropShadow" result="shape"/>
</filter>
<clipPath id="clip0">
<rect width="10" height="10" transform="matrix(-1 0 0 1 34.9999 21)" fill="white"/>
</clipPath>
</defs>
</svg>
