<svg width="24" height="24" viewBox="0 0 24 24" fill="none" xmlns="http://www.w3.org/2000/svg">
<path d="M20.8 0H4.80005C3.69605 0.0013 2.80135 0.896 2.80005 2V22C2.80135 23.104 3.69605 23.9987 4.80005 24H20.8C21.0209 24 21.2 23.8209 21.2 23.6V0.4C21.2 0.1791 21.0209 0 20.8 0ZM16 0.8H18.4V4.5528L17.3788 4.042C17.2663 3.98575 17.1338 3.98575 17.0212 4.042L16 4.5528V0.8ZM3.60005 2C3.60005 1.33725 4.1373 0.8 4.80005 0.8H5.20005V19.2H4.80005C4.36585 19.2015 3.9442 19.3457 3.60005 19.6104V2ZM20.4 21.2H5.20005V22H20.4V23.2H4.80005C4.1373 23.2 3.60005 22.6628 3.60005 22V21.2C3.60005 20.5373 4.1373 20 4.80005 20H20.4V21.2ZM20.4 19.2H6.00005V0.8H15.2V5.2C15.1999 5.4209 15.3789 5.6001 15.5998 5.6002C15.662 5.60025 15.7232 5.5858 15.7788 5.558L17.2 4.8472L18.6212 5.56C18.8188 5.65875 19.0591 5.5786 19.1579 5.381C19.1859 5.3248 19.2004 5.2628 19.2 5.2V0.8H20.4V19.2Z" fill="black"/>
</svg>
