<svg width="32" height="32" viewBox="0 0 32 32" fill="none" xmlns="http://www.w3.org/2000/svg">
<g clip-path="url(#clip0)">
<path d="M14.9862 5.17664H7.29891C6.9914 5.17657 6.69658 5.29893 6.47945 5.51668C6.26211 5.7329 6.13975 6.02675 6.1394 6.33335V7.41202C6.13975 7.7159 6.25995 8.00731 6.47388 8.22311V8.22869C6.6901 8.44603 6.98395 8.56839 7.29055 8.56873H14.989C15.2847 8.56853 15.5691 8.45481 15.7834 8.25099L15.8057 8.22869C16.0234 8.01156 16.1458 7.71674 16.1457 7.40923V6.33614C16.1442 5.69639 15.626 5.17817 14.9862 5.17664ZM15.4238 7.41202C15.4233 7.52713 15.3773 7.63744 15.2956 7.71862C15.2148 7.79227 15.1095 7.83304 15.0001 7.8329H7.29891C7.18379 7.83213 7.0737 7.78607 6.99231 7.70468C6.91092 7.6233 6.86486 7.5132 6.86409 7.39808L6.86131 6.33614C6.86131 6.22012 6.90744 6.10877 6.98952 6.02675C7.0707 5.94508 7.18101 5.89902 7.29612 5.89854H14.989C15.2285 5.90007 15.4223 6.09385 15.4238 6.33335V7.41202Z" fill="black"/>
<path d="M28.8248 29.3953L24.014 24.4534C26.3078 21.0188 25.383 16.3751 21.9484 14.0813C21.9236 14.0647 21.8986 14.0482 21.8734 14.0318V4.36002C21.8709 2.43151 20.6046 0.732596 18.7572 0.179114C18.3581 0.0528509 17.941 -0.00742372 17.5225 0.000729035H4.49478C4.02798 0.00302853 3.58146 0.191657 3.25445 0.524736C2.92443 0.853145 2.73887 1.29953 2.7388 1.76507V23.1323C2.73581 23.655 2.94262 24.157 3.31298 24.5259V24.5148C3.68187 24.8851 4.18393 25.0919 4.70661 25.0889H12.0677C14.4733 27.9623 18.6369 28.6117 21.8037 26.6024L26.6563 31.5638C27.2546 32.1455 28.2071 32.1455 28.8053 31.5638L28.8248 31.5415C29.4062 30.9442 29.4062 29.9926 28.8248 29.3953ZM20.7139 2.79078C20.7139 2.7425 20.7139 2.69414 20.7139 2.64585C20.9983 3.17236 21.1468 3.76159 21.1459 4.36002V13.6193C21.0047 13.5487 20.8607 13.4827 20.7139 13.4214V2.79078ZM19.7579 1.52258C19.9112 1.9307 19.9895 2.36315 19.9892 2.79915V13.1678C19.8424 13.1232 19.6938 13.0833 19.5432 13.0479V1.76507C19.5432 1.61449 19.5235 1.4646 19.4847 1.31911C19.5795 1.37862 19.6705 1.44642 19.7579 1.52258ZM14.6627 0.730993H16.8563V2.76012L16.0201 1.8013C15.8891 1.65086 15.6611 1.63463 15.5101 1.76507L15.471 1.80409L14.6349 2.74898L14.6627 0.730993ZM3.4607 1.96575C3.46133 1.30914 3.97565 0.767855 4.63136 0.733781H13.9408V3.72731C13.9432 3.92743 14.1074 4.0877 14.3074 4.08533C14.4092 4.08415 14.5057 4.04018 14.5735 3.96422L15.7609 2.59846L16.9399 3.95586C17.0678 4.10979 17.2962 4.13097 17.4502 4.00311C17.5323 3.93496 17.5802 3.83406 17.581 3.72731V0.730993C17.9263 0.687442 18.2731 0.798654 18.5287 1.03481L18.5454 1.05153C18.7267 1.24462 18.8266 1.50021 18.8241 1.76507V12.9141C14.7356 12.3513 10.965 15.2093 10.4021 19.2978C10.3067 19.9913 10.3091 20.6947 10.4094 21.3874H4.49478C4.12296 21.3868 3.76068 21.505 3.4607 21.7247V1.96575ZM4.50314 22.101H10.5515C10.6091 22.3351 10.6788 22.5674 10.7606 22.7978H3.5276C3.67268 22.3826 4.06331 22.1036 4.50314 22.101ZM4.70661 24.367C4.37918 24.3673 4.06512 24.2369 3.8342 24.0047C3.69867 23.8693 3.59651 23.7042 3.53596 23.5225H11.0616C11.2014 23.8111 11.3597 24.0904 11.5354 24.3587L4.70661 24.367ZM17.726 27.0475C13.9994 27.0042 11.0136 23.9481 11.0569 20.2216C11.1003 16.4965 14.1541 13.5112 17.8792 13.5525C21.6012 13.5892 24.5888 16.6361 24.5522 20.3581C24.5521 20.3649 24.552 20.3717 24.552 20.3785C24.5086 24.105 21.4525 27.0909 17.726 27.0475ZM28.3594 31.0537L28.3259 31.0871C28.0121 31.3803 27.5249 31.3803 27.211 31.0871L22.4141 26.1788C22.8434 25.8439 23.2341 25.4625 23.5792 25.0415L28.3594 29.9221C28.6631 30.2381 28.6631 30.7376 28.3594 31.0537Z" fill="black"/>
<path d="M17.2417 16.4933C17.2119 16.2954 17.0274 16.1591 16.8295 16.1889C16.8064 16.1924 16.7836 16.1981 16.7616 16.2059L16.7644 16.1947C14.4961 16.7689 13.1228 19.0732 13.697 21.3415C13.8803 22.0659 14.252 22.7289 14.7743 23.2633C14.9273 23.3923 15.1559 23.3729 15.2849 23.22C15.3969 23.0873 15.399 22.8939 15.29 22.7588C13.9374 21.3664 13.9698 19.1412 15.3622 17.7887C15.8013 17.3622 16.3442 17.0578 16.9372 16.9055C17.1351 16.8757 17.2714 16.6912 17.2417 16.4933Z" fill="#40866E"/>
<path d="M22.107 16.103C19.7873 13.7295 15.9826 13.6859 13.6091 16.0057C12.4688 17.1201 11.8182 18.642 11.8004 20.2363H11.7948C11.7764 21.8306 12.3944 23.3664 13.5118 24.5037C15.8316 26.8772 19.6363 26.9207 22.0098 24.6009C24.3833 22.2812 24.4268 18.4765 22.107 16.103ZM17.6974 25.5602C16.3145 25.535 14.9963 24.9698 14.0247 23.9853C11.9702 21.9035 11.9923 18.5505 14.074 16.496C16.1557 14.4415 19.5087 14.4636 21.5632 16.5453C22.5648 17.5602 23.1149 18.9361 23.0889 20.3618C23.0355 23.2861 20.6217 25.6135 17.6974 25.5602Z" fill="black"/>
</g>
<defs>
<clipPath id="clip0">
<rect width="32" height="32" fill="white"/>
</clipPath>
</defs>
</svg>
