<svg width="24" height="24" viewBox="0 0 24 24" fill="none" xmlns="http://www.w3.org/2000/svg">
<g clip-path="url(#clip0)">
<path d="M18.4094 0H5.60944C4.50531 0.00128174 3.61066 0.895935 3.60938 2.00006V21.9999C3.61066 23.1041 4.50531 23.9987 5.60944 24H18.4094C19.5134 23.9987 20.408 23.1041 20.4093 21.9999V2.00006C20.408 0.895935 19.5134 0.00128174 18.4094 0V0ZM19.6093 21.9999C19.6093 22.6628 19.0721 23.2 18.4094 23.2H5.60944C4.94659 23.2 4.40936 22.6628 4.40936 21.9999V2.00006C4.40936 1.33722 4.94659 0.799988 5.60944 0.799988H18.4094C19.0721 0.799988 19.6093 1.33722 19.6093 2.00006V21.9999Z" fill="black"/>
<path d="M18.0093 1.59998H6.00934C5.5675 1.59998 5.20935 1.95813 5.20935 2.39996V20.0001C5.20935 20.4419 5.5675 20.8 6.00934 20.8H18.0093C18.4512 20.8 18.8093 20.4419 18.8093 20.0001V2.39996C18.8093 1.95813 18.4512 1.59998 18.0093 1.59998ZM6.00934 20.0001V2.39996H18.0093V20.0001H6.00934Z" fill="black"/>
<path d="M12.4094 21.6H11.6094C11.3884 21.6 11.2094 21.7791 11.2094 21.9999C11.2094 22.2209 11.3884 22.4 11.6094 22.4H12.4094C12.6302 22.4 12.8093 22.2209 12.8093 21.9999C12.8093 21.7791 12.6302 21.6 12.4094 21.6Z" fill="black"/>
<path d="M7.20941 4.79993H8.80939C9.03021 4.79993 9.20929 4.62085 9.20929 4.40002C9.20929 4.17902 9.03021 3.99994 8.80939 3.99994H7.20941C6.9884 3.99994 6.80933 4.17902 6.80933 4.40002C6.80933 4.62085 6.9884 4.79993 7.20941 4.79993Z" fill="black"/>
<path d="M16.8094 3.99994H10.4094C10.1884 3.99994 10.0093 4.17902 10.0093 4.40002C10.0093 4.62085 10.1884 4.80011 10.4094 4.80011H16.8094C17.0303 4.80011 17.2094 4.62085 17.2094 4.40002C17.2094 4.17902 17.0303 3.99994 16.8094 3.99994Z" fill="black"/>
<path d="M16.8094 6.40009H7.20941C6.9884 6.40009 6.80933 6.57916 6.80933 6.79999C6.80933 7.021 6.9884 7.20007 7.20941 7.20007H16.8094C17.0303 7.20007 17.2094 7.021 17.2094 6.79999C17.2094 6.57916 17.0303 6.40009 16.8094 6.40009Z" fill="black"/>
<path d="M16.8094 8.80005H7.20941C6.9884 8.80005 6.80933 8.97913 6.80933 9.19995C6.80933 9.42096 6.9884 9.60004 7.20941 9.60004H16.8094C17.0303 9.60004 17.2094 9.42096 17.2094 9.19995C17.2094 8.97913 17.0303 8.80005 16.8094 8.80005Z" fill="black"/>
<path d="M7.20941 12H14.4093C14.6303 12 14.8094 11.8209 14.8094 11.6001C14.8094 11.3791 14.6303 11.2 14.4093 11.2H7.20941C6.9884 11.2 6.80933 11.3791 6.80933 11.6001C6.80933 11.8209 6.9884 12 7.20941 12Z" fill="black"/>
<path d="M16.8094 11.2H16.0093C15.7885 11.2 15.6094 11.3791 15.6094 11.6001C15.6094 11.8209 15.7885 12 16.0093 12H16.8094C17.0303 12 17.2094 11.8209 17.2094 11.6001C17.2094 11.3791 17.0303 11.2 16.8094 11.2Z" fill="black"/>
<path d="M16.8094 13.6H7.20941C6.9884 13.6 6.80933 13.7791 6.80933 14.0001C6.80933 14.2209 6.9884 14.4 7.20941 14.4H16.8094C17.0303 14.4 17.2094 14.2209 17.2094 14.0001C17.2094 13.7791 17.0303 13.6 16.8094 13.6Z" fill="black"/>
<path d="M8.0094 15.9999H7.20941C6.9884 15.9999 6.80933 16.179 6.80933 16.4C6.80933 16.6208 6.9884 16.7999 7.20941 16.7999H8.0094C8.23022 16.7999 8.40948 16.6208 8.40948 16.4C8.40948 16.179 8.23022 15.9999 8.0094 15.9999Z" fill="black"/>
<path d="M16.8094 15.9999H9.60931C9.38849 15.9999 9.20923 16.179 9.20923 16.4C9.20923 16.6208 9.38849 16.7999 9.60931 16.7999H16.8094C17.0302 16.7999 17.2093 16.6208 17.2093 16.4C17.2093 16.179 17.0302 15.9999 16.8094 15.9999Z" fill="black"/>
</g>
<defs>
<clipPath id="clip0">
<rect width="24" height="24" fill="white"/>
</clipPath>
</defs>
</svg>
