<svg width="20" height="20" viewBox="0 0 20 20" fill="none" xmlns="http://www.w3.org/2000/svg">
<g clip-path="url(#clip0)">
<path d="M16.5656 11.6744L16.5666 11.6752C16.6989 11.7809 16.7745 11.9464 16.7631 12.1167M16.5656 11.6744L16.6633 12.11M16.5656 11.6744C16.5657 11.6745 16.5656 11.6744 16.5651 11.674C16.5337 11.6472 15.1 10.421 15.1 6.25C15.1 4.44818 14.8897 3.07662 14.463 2.15194C14.2491 1.6884 13.9788 1.33295 13.6494 1.09337C13.3189 0.853009 12.9343 0.73332 12.5 0.73332H12.2945C12.0033 0.454807 11.7366 0.245543 11.3926 0.107025C11.0379 -0.0357515 10.6096 -0.1 10 -0.1C8.38615 -0.1 4.9 1.51201 4.9 6.25C4.9 10.4003 3.48049 11.6346 3.43977 11.6701C3.43918 11.6706 3.43888 11.6708 3.43887 11.6708C3.30234 11.774 3.22522 11.9378 3.23343 12.109L3.23347 12.1096C3.24275 12.2818 3.33665 12.438 3.48473 12.526L3.48542 12.5264L3.48665 12.5271C3.55688 12.5681 4.65526 13.2098 6.80093 13.5837L6.65752 14.1567L3.52324 14.9405L3.5475 15.0375L3.52324 14.9405C1.38952 15.4741 -0.1 17.3825 -0.1 19.5833C-0.1 19.8685 0.131451 20.1 0.41668 20.1H19.5834C19.8691 20.1 20.1 19.8664 20.1 19.5817C20.1 17.3824 18.6105 15.4741 16.4768 14.9405L13.3425 14.1567L13.1989 13.582M16.5656 11.6744L13.1989 13.582M16.7631 12.1167L16.6633 12.11M16.7631 12.1167C16.7631 12.1167 16.7631 12.1167 16.7631 12.1167L16.6633 12.11M16.7631 12.1167C16.7518 12.2855 16.6606 12.441 16.5125 12.5278M16.6633 12.11C16.6541 12.2475 16.58 12.3725 16.4616 12.4417M16.5125 12.5278C16.5127 12.5276 16.5129 12.5275 16.5131 12.5274L16.4616 12.4417M16.5125 12.5278C16.4478 12.5665 15.338 13.207 13.1989 13.582M16.5125 12.5278C16.5124 12.5278 16.5123 12.5279 16.5121 12.528L16.4616 12.4417M16.4616 12.4417L13.1989 13.582M7.785 12.9284C7.85082 13.0267 7.8725 13.1484 7.84332 13.2625L7.785 12.9284ZM7.785 12.9284C7.71832 12.8309 7.61418 12.7659 7.49668 12.7492L7.785 12.9284ZM3.77428 15.9429L7.20843 15.0846L7.20856 15.0845C7.39347 15.038 7.538 14.8935 7.58448 14.7086L7.58451 14.7085L7.94021 13.2873C7.94023 13.2872 7.94025 13.2871 7.94027 13.287C7.97653 13.1448 7.94936 12.9942 7.86811 12.8727L7.86754 12.8719C7.78507 12.7513 7.65611 12.6708 7.51073 12.6502L7.51044 12.6501C6.12704 12.4579 5.15127 12.1357 4.58779 11.907C5.14425 11.1149 5.93332 9.4309 5.93332 6.25004C5.93332 4.05222 6.75612 2.72623 7.67142 1.9482C8.59215 1.16556 9.61101 0.933359 10 0.933359C10.5109 0.933359 10.8057 0.976274 11.0371 1.07793C11.2685 1.17964 11.4463 1.34405 11.7176 1.61569L11.718 1.61612C11.8148 1.71192 11.9458 1.76672 12.0833 1.76672H12.5C12.8236 1.76672 13.082 1.92483 13.2924 2.20255C13.505 2.48312 13.6639 2.88075 13.7801 3.34101C14.0124 4.26053 14.0667 5.3963 14.0667 6.25004C14.0667 9.42756 14.8542 11.1122 15.4105 11.9052C14.8438 12.1337 13.8648 12.4554 12.4889 12.6485C12.3437 12.6682 12.2137 12.75 12.1322 12.8708L12.1319 12.8711C12.0507 12.9925 12.0235 13.1433 12.0598 13.2855C12.0598 13.2855 12.0598 13.2856 12.0598 13.2857L12.4155 14.7085L12.4156 14.7086C12.462 14.8934 12.6065 15.038 12.7905 15.0845L12.7908 15.0846L16.2257 15.9428C16.2257 15.9428 16.2257 15.9428 16.2258 15.9428C17.7288 16.3192 18.8249 17.5656 19.0312 19.0666H0.967981C1.17427 17.5663 2.27039 16.3192 3.77428 15.9429Z" fill="white" stroke="white" stroke-width="0.2"/>
</g>
<defs>
<clipPath id="clip0">
<rect width="20" height="20" fill="white"/>
</clipPath>
</defs>
</svg>
