<svg width="75" height="75" viewBox="0 0 75 75" fill="none" xmlns="http://www.w3.org/2000/svg">
<g filter="url(#filter0_d)">
<circle cx="37.5" cy="33.5" r="22.5" fill="white"/>
</g>
<g clip-path="url(#clip0)">
<path d="M33.8366 33.7161L40.7117 40.9037C40.8313 41.0276 41.0291 41.0331 41.1536 40.9135C41.2781 40.7941 41.2824 40.5964 41.1633 40.4716L34.4952 33.5001L41.1634 26.5286C41.2824 26.4037 41.2781 26.206 41.1536 26.0867C41.0932 26.0287 41.015 26 40.9375 26C40.8551 26 40.7733 26.0323 40.7117 26.0964L33.8366 33.284C33.7213 33.4049 33.7213 33.5953 33.8366 33.7161Z" fill="#40866E"/>
</g>
<defs>
<filter id="filter0_d" x="0" y="0" width="75" height="75" filterUnits="userSpaceOnUse" color-interpolation-filters="sRGB">
<feFlood flood-opacity="0" result="BackgroundImageFix"/>
<feColorMatrix in="SourceAlpha" type="matrix" values="0 0 0 0 0 0 0 0 0 0 0 0 0 0 0 0 0 0 127 0"/>
<feOffset dy="4"/>
<feGaussianBlur stdDeviation="7.5"/>
<feColorMatrix type="matrix" values="0 0 0 0 0 0 0 0 0 0 0 0 0 0 0 0 0 0 0.05 0"/>
<feBlend mode="normal" in2="BackgroundImageFix" result="effect1_dropShadow"/>
<feBlend mode="normal" in="SourceGraphic" in2="effect1_dropShadow" result="shape"/>
</filter>
<clipPath id="clip0">
<rect x="45" y="41" width="15" height="15" transform="rotate(-180 45 41)" fill="white"/>
</clipPath>
</defs>
</svg>
