<svg width="21" height="26" viewBox="0 0 21 26" fill="none" xmlns="http://www.w3.org/2000/svg">
<path d="M20.6028 21.4408L19.4417 6.80992C19.3694 5.86727 18.5722 5.12891 17.6268 5.12891H15.3334V5.02582C15.3334 2.25454 13.0789 0 10.3077 0C7.53644 0 5.28191 2.25454 5.28191 5.02577V5.12886H2.98852C2.04313 5.12886 1.24591 5.86722 1.1738 6.80789L0.0122851 21.4427C-0.0775977 22.6145 0.328906 23.7811 1.12749 24.6433C1.92608 25.5054 3.05814 26 4.23338 26H16.3819C17.5571 26 18.6892 25.5055 19.4878 24.6433C20.2863 23.7811 20.6928 22.6145 20.6028 21.4408ZM6.80479 5.02577C6.80479 3.0943 8.37621 1.52293 10.3076 1.52293C12.239 1.52293 13.8105 3.09436 13.8105 5.02577V5.12886H6.80479V5.02577ZM18.3705 23.6085C17.8516 24.1686 17.1454 24.4771 16.3819 24.4771H4.23343C3.46988 24.4771 2.76372 24.1686 2.24483 23.6085C1.726 23.0483 1.4724 22.3205 1.5307 21.5612L2.69206 6.92631C2.70384 6.77234 2.83405 6.65178 2.98847 6.65178H5.28186V8.52739C5.28186 8.94791 5.6228 9.28886 6.04332 9.28886C6.46384 9.28886 6.80479 8.94791 6.80479 8.52739V6.65178H13.8105V8.52739C13.8105 8.94791 14.1515 9.28886 14.572 9.28886C14.9925 9.28886 15.3334 8.94791 15.3334 8.52739V6.65178H17.6268C17.7813 6.65178 17.9114 6.77234 17.9234 6.92834L19.0845 21.5592C19.1429 22.3205 18.8893 23.0482 18.3705 23.6085Z" fill="black"/>
</svg>
