<svg width="48" height="48" viewBox="0 0 48 48" fill="none" xmlns="http://www.w3.org/2000/svg">
<path d="M46.2186 24.0001C46.2233 20.7283 45.5033 17.4962 44.1104 14.5358C42.7174 11.5754 40.686 8.96027 38.1621 6.87835C34.1779 3.58403 29.1699 1.78174 24.0002 1.78174C18.8305 1.78174 13.8225 3.58403 9.83833 6.87835C6.27192 9.82706 3.7157 13.8162 2.52677 18.2884C1.33784 22.7606 1.5756 27.4925 3.20683 31.823C2.48111 32.6059 2.0073 33.5887 1.84683 34.6441C1.68636 35.6995 1.84661 36.7787 2.30683 37.742L4.92358 43.1971C5.22504 43.828 5.64804 44.3932 6.16834 44.8603C6.68864 45.3275 7.29601 45.6873 7.95564 45.9193C8.61527 46.1513 9.31419 46.2508 10.0124 46.2122C10.7105 46.1736 11.3942 45.9975 12.0242 45.6942L12.5777 45.4287C12.6251 45.4053 12.6694 45.3763 12.7097 45.3421C13.1938 45.5012 13.7139 45.5144 14.2054 45.3801C14.6969 45.2457 15.1381 44.9697 15.4739 44.5865C15.8097 44.2032 16.0253 43.7297 16.0939 43.2248C16.1625 42.7198 16.0811 42.2059 15.8597 41.747L9.87058 29.2737C9.70039 28.9167 9.45083 28.6033 9.14096 28.3575C8.8311 28.1118 8.46914 27.9401 8.08276 27.8556C7.69638 27.7712 7.2958 27.7762 6.91165 27.8703C6.5275 27.9644 6.16995 28.145 5.86633 28.3985C5.05697 25.0534 5.18952 21.5495 6.24927 18.2752C7.30903 15.0008 9.25461 12.0837 11.8705 9.84722C12.1384 9.9882 12.4362 10.0633 12.739 10.0662C13.1446 10.0654 13.5399 9.93784 13.8696 9.70135C16.8291 7.59859 20.3696 6.46886 24 6.46886C27.6305 6.46886 31.171 7.59859 34.1305 9.70135C34.418 9.90855 34.7572 10.0322 35.1105 10.0587C35.4639 10.0852 35.8178 10.0134 36.1329 9.85135C38.7475 12.088 40.6919 15.0047 41.7509 18.2784C42.8099 21.5521 42.9422 25.055 42.1329 28.3992C41.8293 28.1458 41.4718 27.9651 41.0876 27.871C40.7035 27.7769 40.3029 27.7719 39.9165 27.8564C39.5301 27.9408 39.1682 28.1125 38.8583 28.3583C38.5485 28.6041 38.2989 28.9175 38.1287 29.2745L32.1411 41.747C31.9171 42.2058 31.8337 42.7207 31.9013 43.2268C31.9688 43.7329 32.1844 44.2078 32.5209 44.5919C32.8573 44.9759 33.2997 45.252 33.7926 45.3856C34.2854 45.5191 34.8067 45.5041 35.2911 45.3425C35.3315 45.3764 35.3758 45.4053 35.4231 45.4287L35.9766 45.6946C37.2494 46.3049 38.7125 46.3847 40.0441 45.9163C41.3757 45.4479 42.4667 44.4698 43.0772 43.1971L45.694 37.742C46.1542 36.7787 46.3144 35.6995 46.1539 34.6441C45.9935 33.5887 45.5197 32.6059 44.7939 31.823C45.7399 29.3235 46.2226 26.6726 46.2186 24.0001ZM8.39045 44.6783C7.89309 44.5049 7.43506 44.2345 7.04287 43.8828C6.65068 43.5312 6.3321 43.1053 6.10558 42.6297L3.4892 37.1742C3.0333 36.2219 2.97112 35.1283 3.31614 34.1304C3.66116 33.1326 4.38557 32.3109 5.33233 31.8436L11.4167 44.5291C10.467 44.9756 9.37947 45.0292 8.39045 44.6783ZM6.96545 29.2377C7.13877 29.154 7.32874 29.1106 7.5212 29.1106C7.76444 29.1105 8.00277 29.1791 8.20875 29.3085C8.41474 29.4378 8.58002 29.6227 8.68558 29.8418L14.6755 42.3151C14.7487 42.4678 14.7912 42.6334 14.8004 42.8024C14.8097 42.9715 14.7855 43.1407 14.7294 43.3005C14.6732 43.4602 14.5862 43.6074 14.4732 43.7335C14.3602 43.8596 14.2234 43.9622 14.0708 44.0354C13.9181 44.1087 13.7525 44.1511 13.5834 44.1604C13.4144 44.1696 13.2451 44.1455 13.0854 44.0894C12.9256 44.0332 12.7785 43.9461 12.6524 43.8331C12.5263 43.7201 12.4237 43.5834 12.3505 43.4307L6.37483 30.9807L6.36395 30.9575C6.2906 30.8049 6.24803 30.6394 6.23869 30.4703C6.22936 30.3013 6.25343 30.1321 6.30954 29.9724C6.36565 29.8127 6.45269 29.6656 6.56569 29.5395C6.67868 29.4134 6.81542 29.3109 6.96808 29.2377H6.96545ZM4.03108 24.0001C4.03014 26.0377 4.34138 28.0635 4.95395 30.0068C4.92463 30.1966 4.91658 30.389 4.92995 30.5806L4.80283 30.6413C4.6217 30.7291 4.44567 30.827 4.27558 30.9346C2.89228 26.9983 2.71888 22.738 3.7777 18.7022C4.83652 14.6665 7.0791 11.0401 10.2167 8.28985L10.8748 8.97385C8.72446 10.8422 7.00057 13.1507 5.81984 15.7432C4.63911 18.3356 4.02909 21.1514 4.03108 24.0001ZM34.8913 8.63222C31.7096 6.37117 27.9031 5.15639 23.9998 5.15639C20.0965 5.15639 16.29 6.37117 13.1083 8.63222C12.9881 8.72025 12.8401 8.76182 12.6917 8.74928C12.5432 8.73674 12.4043 8.67092 12.3006 8.56397L11.2273 7.44722C14.8869 4.62468 19.3783 3.09382 23.9998 3.09382C28.6214 3.09382 33.1128 4.62468 36.7723 7.44722L35.6998 8.5636C35.5961 8.6708 35.4571 8.73681 35.3084 8.74943C35.1598 8.76204 35.0116 8.72041 34.8913 8.63222ZM37.1248 8.97385L37.7822 8.28985C40.9201 11.0399 43.1629 14.6662 44.222 18.702C45.2811 22.7377 45.108 26.9981 43.7248 30.9346C43.5547 30.827 43.3787 30.7291 43.1976 30.6413L43.0704 30.5802C43.0838 30.3888 43.0758 30.1965 43.0465 30.0068C44.2133 26.3051 44.2746 22.3432 43.2227 18.6071C42.1709 14.871 40.0516 11.5231 37.1248 8.97385ZM33.9276 44.0363C33.6197 43.8881 33.3832 43.6238 33.2699 43.3014C33.1567 42.979 33.1759 42.6248 33.3235 42.3166L39.3115 29.8433C39.417 29.6242 39.5823 29.4393 39.7883 29.31C39.9943 29.1806 40.2326 29.112 40.4758 29.1121C40.6936 29.1124 40.9078 29.1679 41.0983 29.2735C41.2888 29.379 41.4495 29.5311 41.5654 29.7155C41.6812 29.8999 41.7484 30.1107 41.7607 30.3282C41.773 30.5456 41.73 30.7626 41.6357 30.959L41.6248 30.9822L35.6477 43.4322C35.5745 43.5849 35.4719 43.7216 35.3458 43.8346C35.2197 43.9476 35.0726 44.0347 34.9128 44.0908C34.7531 44.1469 34.5839 44.171 34.4148 44.1616C34.2457 44.1523 34.0802 44.1097 33.9276 44.0363ZM44.5097 37.1738L41.8933 42.6293C41.4367 43.5817 40.6227 44.3154 39.6283 44.671C38.6338 45.0267 37.5392 44.9755 36.5822 44.5287L42.6673 31.8436C43.6144 32.3106 44.3392 33.1321 44.6846 34.13C45.03 35.1279 44.9681 36.2217 44.5123 37.1742L44.5097 37.1738Z" fill="#626262"/>
</svg>
