<svg width="11" height="19" viewBox="0 0 11 19" fill="none" xmlns="http://www.w3.org/2000/svg">
<path fill-rule="evenodd" clip-rule="evenodd" d="M3.04734 9.81369V18.2706C3.04724 18.2995 3.05368 18.3281 3.06629 18.3548C3.0789 18.3815 3.09743 18.4058 3.12081 18.4262C3.1442 18.4466 3.17197 18.4628 3.20254 18.4738C3.2331 18.4848 3.26585 18.4904 3.2989 18.4902H6.88852C6.92157 18.4904 6.95432 18.4848 6.98488 18.4738C7.01545 18.4628 7.04322 18.4466 7.06661 18.4262C7.08999 18.4058 7.10852 18.3815 7.12113 18.3548C7.13374 18.3281 7.14018 18.2995 7.14008 18.2706V9.67631H9.74437C9.80743 9.67623 9.86816 9.65544 9.91452 9.61805C9.96088 9.58066 9.98949 9.52941 9.99468 9.47444L10.2459 6.88555C10.2487 6.85505 10.2443 6.82436 10.2329 6.79543C10.2215 6.7665 10.2033 6.73996 10.1796 6.71748C10.1558 6.69501 10.127 6.6771 10.0949 6.66488C10.0628 6.65266 10.0282 6.6464 9.99322 6.6465H7.14008V4.81032C7.14006 4.70784 7.16313 4.60637 7.20797 4.51169C7.25281 4.41702 7.31854 4.331 7.40141 4.25855C7.48427 4.18609 7.58265 4.12863 7.69092 4.08944C7.79919 4.05025 7.91524 4.03011 8.03241 4.03015H10.0397C10.0728 4.03011 10.1055 4.02438 10.136 4.01328C10.1665 4.00218 10.1942 3.98594 10.2175 3.96547C10.2408 3.94501 10.2593 3.92073 10.2719 3.89401C10.2845 3.8673 10.291 3.83868 10.2909 3.80978V1.22089C10.291 1.16248 10.2647 1.10642 10.2176 1.065C10.1705 1.02358 10.1065 1.00021 10.0397 1H6.64808C6.17508 1.0001 5.70674 1.08168 5.2698 1.24007C4.83285 1.39847 4.43587 1.63058 4.1015 1.92315C3.76714 2.21572 3.50195 2.56302 3.32108 2.94523C3.1402 3.32743 3.04719 3.73704 3.04734 4.15068V6.6465H1.25054C1.2175 6.64646 1.18478 6.65215 1.15427 6.66323C1.12376 6.6743 1.09606 6.69055 1.07277 6.71104C1.04948 6.73153 1.03106 6.75585 1.01857 6.78259C1.00608 6.80934 0.999771 6.83798 1.00001 6.86687V9.45632C0.999779 9.48519 1.0061 9.51381 1.01859 9.54053C1.03109 9.56725 1.04952 9.59155 1.07282 9.612C1.09611 9.63246 1.12381 9.64867 1.15432 9.65971C1.18482 9.67075 1.21752 9.67639 1.25054 9.67631H3.04734V9.81369Z" stroke="white" stroke-miterlimit="10"/>
</svg>
