<svg width="48" height="48" viewBox="0 0 48 48" fill="none" xmlns="http://www.w3.org/2000/svg">
<g clip-path="url(#clip0)">
<path d="M36.8188 0H11.2189C9.01062 0.00256348 7.22131 1.79187 7.21875 4.00012V43.9999C7.22131 46.2081 9.01062 47.9974 11.2189 48H36.8188C39.0267 47.9974 40.816 46.2081 40.8186 43.9999V4.00012C40.816 1.79187 39.0267 0.00256348 36.8188 0V0ZM39.2186 43.9999C39.2186 45.3256 38.1442 46.4 36.8188 46.4H11.2189C9.89319 46.4 8.81873 45.3256 8.81873 43.9999V4.00012C8.81873 2.67444 9.89319 1.59998 11.2189 1.59998H36.8188C38.1442 1.59998 39.2186 2.67444 39.2186 4.00012V43.9999Z" fill="#626262"/>
<path d="M36.0189 3.19995H12.0189C11.1353 3.19995 10.4189 3.91626 10.4189 4.79993V40.0001C10.4189 40.8838 11.1353 41.6001 12.0189 41.6001H36.0189C36.9026 41.6001 37.6189 40.8838 37.6189 40.0001V4.79993C37.6189 3.91626 36.9026 3.19995 36.0189 3.19995ZM12.0189 40.0001V4.79993H36.0189V40.0001H12.0189Z" fill="#626262"/>
<path d="M24.8191 43.2H23.2191C22.7771 43.2 22.4189 43.5581 22.4189 43.9998C22.4189 44.4418 22.7771 44.7999 23.2191 44.7999H24.8191C25.2607 44.7999 25.6189 44.4418 25.6189 43.9998C25.6189 43.5581 25.2607 43.2 24.8191 43.2Z" fill="#626262"/>
<path d="M14.4188 9.59998H17.6188C18.0604 9.59998 18.4186 9.24182 18.4186 8.80017C18.4186 8.35815 18.0604 8 17.6188 8H14.4188C13.9768 8 13.6187 8.35815 13.6187 8.80017C13.6187 9.24182 13.9768 9.59998 14.4188 9.59998Z" fill="#626262"/>
<path d="M33.6189 8H20.8187C20.3767 8 20.0186 8.35815 20.0186 8.80017C20.0186 9.24182 20.3767 9.60034 20.8187 9.60034H33.6189C34.0605 9.60034 34.4187 9.24182 34.4187 8.80017C34.4187 8.35815 34.0605 8 33.6189 8Z" fill="#626262"/>
<path d="M33.6189 12.8003H14.4188C13.9768 12.8003 13.6187 13.1584 13.6187 13.6001C13.6187 14.0421 13.9768 14.4003 14.4188 14.4003H33.6189C34.0605 14.4003 34.4187 14.0421 34.4187 13.6001C34.4187 13.1584 34.0605 12.8003 33.6189 12.8003Z" fill="#626262"/>
<path d="M33.6189 17.6001H14.4188C13.9768 17.6001 13.6187 17.9583 13.6187 18.3999C13.6187 18.8419 13.9768 19.2001 14.4188 19.2001H33.6189C34.0605 19.2001 34.4187 18.8419 34.4187 18.3999C34.4187 17.9583 34.0605 17.6001 33.6189 17.6001Z" fill="#626262"/>
<path d="M14.4188 23.9999H28.8186C29.2606 23.9999 29.6188 23.6417 29.6188 23.2001C29.6188 22.7581 29.2606 22.3999 28.8186 22.3999H14.4188C13.9768 22.3999 13.6187 22.7581 13.6187 23.2001C13.6187 23.6417 13.9768 23.9999 14.4188 23.9999Z" fill="#626262"/>
<path d="M33.6189 22.3999H32.0186C31.5769 22.3999 31.2188 22.7581 31.2188 23.2001C31.2188 23.6417 31.5769 23.9999 32.0186 23.9999H33.6189C34.0605 23.9999 34.4187 23.6417 34.4187 23.2001C34.4187 22.7581 34.0605 22.3999 33.6189 22.3999Z" fill="#626262"/>
<path d="M33.6189 27.2H14.4188C13.9768 27.2 13.6187 27.5581 13.6187 28.0001C13.6187 28.4418 13.9768 28.7999 14.4188 28.7999H33.6189C34.0605 28.7999 34.4187 28.4418 34.4187 28.0001C34.4187 27.5581 34.0605 27.2 33.6189 27.2Z" fill="#626262"/>
<path d="M16.0188 32H14.4188C13.9768 32 13.6187 32.3582 13.6187 32.8002C13.6187 33.2418 13.9768 33.6 14.4188 33.6H16.0188C16.4604 33.6 16.819 33.2418 16.819 32.8002C16.819 32.3582 16.4604 32 16.0188 32Z" fill="#626262"/>
<path d="M33.6188 32H19.2186C18.777 32 18.4185 32.3582 18.4185 32.8002C18.4185 33.2418 18.777 33.6 19.2186 33.6H33.6188C34.0604 33.6 34.4186 33.2418 34.4186 32.8002C34.4186 32.3582 34.0604 32 33.6188 32Z" fill="#626262"/>
</g>
<defs>
<clipPath id="clip0">
<rect width="48" height="48" fill="white"/>
</clipPath>
</defs>
</svg>
